<svg xmlns="http://www.w3.org/2000/svg" width="25.355" height="30.503" viewBox="0 0 25.355 30.503">
  <g id="text-documents" transform="translate(-40.856)">
    <g id="Group_20" data-name="Group 20" transform="translate(40.856)">
      <path id="Path_113" data-name="Path 113" d="M64.036,0H47.187a2.178,2.178,0,0,0-2.175,2.175V3.565h-1.98A2.178,2.178,0,0,0,40.856,5.74V28.327A2.178,2.178,0,0,0,43.031,30.5H59.88a2.178,2.178,0,0,0,2.175-2.175V26.938h1.98a2.178,2.178,0,0,0,2.175-2.175V2.175A2.178,2.178,0,0,0,64.036,0Zm-3.72,28.327a.436.436,0,0,1-.435.435H43.031a.436.436,0,0,1-.435-.435V5.74a.436.436,0,0,1,.435-.435h1.98V24.763a2.178,2.178,0,0,0,2.175,2.175H60.316v1.389Zm4.155-3.565a.436.436,0,0,1-.435.435H47.187a.436.436,0,0,1-.435-.435V2.175a.436.436,0,0,1,.435-.435H64.036a.436.436,0,0,1,.435.435V24.763Z" transform="translate(-40.856)"/>
      <path id="Path_114" data-name="Path 114" d="M173.6,85.786H160.842a.87.87,0,1,0,0,1.74H173.6a.87.87,0,0,0,0-1.74Z" transform="translate(-152.468 -80.382)"/>
      <path id="Path_115" data-name="Path 115" d="M173.6,151.529H160.842a.87.87,0,1,0,0,1.74H173.6a.87.87,0,0,0,0-1.74Z" transform="translate(-152.468 -141.983)"/>
      <path id="Path_116" data-name="Path 116" d="M173.6,217.27H160.842a.87.87,0,1,0,0,1.74H173.6a.87.87,0,0,0,0-1.74Z" transform="translate(-152.468 -203.582)"/>
      <path id="Path_117" data-name="Path 117" d="M173.6,283.014H160.842a.87.87,0,1,0,0,1.74H173.6a.87.87,0,0,0,0-1.74Z" transform="translate(-152.468 -265.184)"/>
    </g>
  </g>
</svg>
