<svg xmlns="http://www.w3.org/2000/svg" width="26.927" height="25.118" viewBox="0 0 26.927 25.118">
  <g id="_7OIjnn.tif" data-name="7OIjnn.tif" transform="translate(26.015 -254.745)">
    <g id="Group_14" data-name="Group 14" transform="translate(-26.015 254.745)">
      <path id="Path_81" data-name="Path 81" d="M.907,262.082c0-2.067,0-4.133,0-6.2a1.038,1.038,0,0,0-1.3-1.1,13.35,13.35,0,0,1-3.831.187c-1.714-.073-3.427-.179-5.141-.2a5.748,5.748,0,0,0-1.668.318,3.681,3.681,0,0,0-1.535,1.074c-.076-.069-.136-.12-.192-.176a4.028,4.028,0,0,0-3.008-1.226c-1.424.023-2.847.1-4.27.16a16.916,16.916,0,0,1-4.792-.143.949.949,0,0,0-1.179,1.006q0,8.925.007,17.85a3.32,3.32,0,0,0,.155.973,4.2,4.2,0,0,0,4.073,2.9c1.947.009,3.893,0,5.84,0,.572,0,1.144.01,1.716,0a1.035,1.035,0,0,0,1.055-1.133,1.041,1.041,0,0,0-1.126-.97c-2.438,0-4.876.008-7.314-.011a2.9,2.9,0,0,1-1.134-.226,2.154,2.154,0,0,1-1.188-2.451,5.537,5.537,0,0,0,3.094.583c2.207-.007,4.415,0,6.622-.007a.776.776,0,0,1,.75.383.975.975,0,0,0,.989.441.936.936,0,0,0,.851-.7,2.672,2.672,0,0,0,.109-.739q.01-5.614,0-11.228c0-.883-.035-1.769.027-2.648a2.385,2.385,0,0,1,.412-1.1,1.944,1.944,0,0,1,1.8-.837c2,.08,4.008.175,6.013.249.677.025,1.356,0,2.061,0v.34q0,3.536,0,7.074a1.078,1.078,0,0,0,.541,1.034A1.042,1.042,0,0,0,.9,264.641C.921,263.788.907,262.935.907,262.082Zm-14.532,8.967a1.08,1.08,0,0,1-.018.135h-.571q-3.717,0-7.433,0a2.194,2.194,0,0,1-1.853-.818,2.125,2.125,0,0,1-.455-1.34q0-5.9,0-11.8a.774.774,0,0,1,.011-.111c.385,0,.753.012,1.121,0,1.743-.068,3.487-.146,5.23-.214q.857-.034,1.715-.041a2.1,2.1,0,0,1,2.247,2.15C-13.611,263.024-13.625,267.037-13.625,271.049Z" transform="translate(26.015 -254.745)" fill="#0364e8"/>
      <path id="Path_82" data-name="Path 82" d="M221.144,462.718a3.136,3.136,0,0,0-4.325.324q-2.788,2.767-5.557,5.551a1.825,1.825,0,0,0-.424.709c-.4,1.27-.777,2.549-1.164,3.824a1.112,1.112,0,0,0,.184,1.183,1.127,1.127,0,0,0,1.22.264c1.3-.368,2.61-.713,3.908-1.09a1.685,1.685,0,0,0,.7-.388q2.838-2.8,5.651-5.627a3.112,3.112,0,0,0,.984-2.285A3.027,3.027,0,0,0,221.144,462.718Zm-3.127,5.072q-1.761,1.769-3.527,3.533a.855.855,0,0,1-.35.206c-.631.184-1.267.351-1.952.538.217-.7.418-1.361.625-2.016a.459.459,0,0,1,.126-.164q1.828-1.83,3.658-3.658a.8.8,0,0,1,.089-.073l1.475,1.471C218.13,467.66,218.077,467.73,218.017,467.79Zm1.69-1.706-1.469-1.468a1.084,1.084,0,0,1,1.683-.17A1.072,1.072,0,0,1,219.707,466.085Z" transform="translate(-195.404 -449.524)" fill="#0364e8"/>
      <path id="Path_83" data-name="Path 83" d="M45.548,337.012A1.063,1.063,0,0,1,44.4,338.06c-.732,0-1.463,0-2.195,0s-1.483,0-2.224,0a1.042,1.042,0,0,1-1.125-1.029,1.057,1.057,0,0,1,1.122-1.076q2.21-.011,4.419,0A1.08,1.08,0,0,1,45.548,337.012Z" transform="translate(-34.953 -331.061)" fill="#0364e8"/>
      <path id="Path_84" data-name="Path 84" d="M43.976,406.935a1.058,1.058,0,0,1-1.074,1.032H41.4c-.491,0-.982,0-1.473,0a1.033,1.033,0,0,1-1.06-.971,1.017,1.017,0,0,1,.972-1.119c1.051-.034,2.1-.032,3.155,0A1.035,1.035,0,0,1,43.976,406.935Z" transform="translate(-34.96 -396.754)" fill="#0364e8"/>
    </g>
  </g>
</svg>
