<?xml version="1.0" encoding="utf-8"?>
<!-- Generator: Adobe Illustrator 23.0.2, SVG Export Plug-In . SVG Version: 6.00 Build 0)  -->
<svg version="1.1" id="Laag_1" xmlns="http://www.w3.org/2000/svg" xmlns:xlink="http://www.w3.org/1999/xlink" x="0px" y="0px"
	 viewBox="0 0 26.1 31.4" style="enable-background:new 0 0 26.1 31.4;" xml:space="preserve">
<style type="text/css">
	.st0{stroke:#000000;stroke-width:0.5;stroke-miterlimit:10;}
</style>
<g id="text-documents" transform="translate(-40.856)">
	<g id="Group_20" transform="translate(40.856)">
		<path id="Path_113" class="st0" d="M23.5,0.6H6.7c-1.2,0-2.2,1-2.2,2.2v1.4h-2c-1.2,0-2.2,1-2.2,2.2v22.6c0,1.2,1,2.2,2.2,2.2
			h16.8c1.2,0,2.2-1,2.2-2.2v-1.4h2c1.2,0,2.2-1,2.2-2.2V2.7C25.7,1.5,24.7,0.6,23.5,0.6z M19.8,28.9c0,0.2-0.2,0.4-0.4,0.4H2.5
			c-0.2,0-0.4-0.2-0.4-0.4V6.3c0-0.2,0.2-0.4,0.4-0.4h2v19.5c0,1.2,1,2.2,2.2,2.2h13.1V28.9z M24,25.3c0,0.2-0.2,0.4-0.4,0.4H6.7
			c-0.2,0-0.4-0.2-0.4-0.4V2.7c0-0.2,0.2-0.4,0.4-0.4h16.8c0.2,0,0.4,0.2,0.4,0.4V25.3L24,25.3z"/>
		<path id="Path_114" class="st0" d="M21.5,6H8.7C8.2,6,7.8,6.4,7.8,6.8c0,0.5,0.4,0.9,0.9,0.9c0,0,0,0,0,0h12.8
			c0.5,0,0.9-0.4,0.9-0.9C22.3,6.4,22,6,21.5,6z"/>
		<path id="Path_115" class="st0" d="M21.5,10.1H8.7c-0.5,0-0.9,0.4-0.9,0.9c0,0.5,0.4,0.9,0.9,0.9h12.8c0.5,0,0.9-0.4,0.9-0.9
			C22.3,10.5,22,10.1,21.5,10.1z"/>
		<path id="Path_116" class="st0" d="M21.5,14.3H8.7c-0.5,0-0.9,0.4-0.9,0.9c0,0.5,0.4,0.9,0.9,0.9h12.8c0.5,0,0.9-0.4,0.9-0.9
			C22.3,14.7,22,14.3,21.5,14.3z"/>
		<path id="Path_117" class="st0" d="M21.5,18.4H8.7c-0.5,0-0.9,0.4-0.9,0.9c0,0.5,0.4,0.9,0.9,0.9c0,0,0,0,0,0h12.8
			c0.5,0,0.9-0.4,0.9-0.9C22.3,18.8,22,18.4,21.5,18.4z"/>
	</g>
</g>
</svg>
