<svg xmlns="http://www.w3.org/2000/svg" width="28.477" height="23.531" viewBox="0 0 28.477 23.531">
  <path id="folder" d="M25.849,12.694H24.279V9.876a1.23,1.23,0,0,0-1.228-1.228H11.922L9.674,5.5H1.228A1.23,1.23,0,0,0,0,6.728V26.371H0a1.148,1.148,0,0,0,1.151,1.16H21.278a1.142,1.142,0,0,0,1.1-.815l4.6-12.606v-.08A1.2,1.2,0,0,0,25.849,12.694ZM.9,6.728A.33.33,0,0,1,1.228,6.4H9.21l2.248,3.147H23.051a.329.329,0,0,1,.329.329v2.818H5.724a1.153,1.153,0,0,0-1.1.815L.9,23.664ZM21.523,26.445a.255.255,0,0,1-.245.187H1.153a.248.248,0,0,1-.2-.1A.244.244,0,0,1,.9,26.349L5.479,13.781a.255.255,0,0,1,.245-.187H25.849c.171,0,.214.245.226.368Z" transform="translate(0.75 -4.75)" stroke="#000" stroke-width="1.5"/>
</svg>
