<svg xmlns="http://www.w3.org/2000/svg" xmlns:xlink="http://www.w3.org/1999/xlink" width="73.991" height="99.048" viewBox="0 0 73.991 99.048">
  <defs>
    <clipPath id="clip-path">
      <rect id="Rectangle_512" data-name="Rectangle 512" width="73.991" height="99.048" transform="translate(213 44)" fill="#fff" stroke="#707070" stroke-width="1"/>
    </clipPath>
  </defs>
  <g id="Mask_Group_6" data-name="Mask Group 6" transform="translate(-213 -44)" clip-path="url(#clip-path)">
    <g id="blue" transform="translate(194.67 55.94)">
      <g id="Group_16" data-name="Group 16" transform="translate(0 97.448)">
        <path id="Path_88" data-name="Path 88" d="M100.6,607.8h15.774v2.842h-6.289v16.076h-3.2V610.642H100.6Z" transform="translate(-100.6 -606.404)" fill="#fff"/>
        <path id="Path_89" data-name="Path 89" d="M201.592,650.925v-.774a5.528,5.528,0,0,1-3.38,1.009c-2.808,0-5.112-1.665-5.112-4.473,0-2.59,2.3-4.406,5.331-4.406a6.614,6.614,0,0,1,3.178.824V642a2.365,2.365,0,0,0-2.623-2.472,2.218,2.218,0,0,0-2.337,1.48h-2.96a5.2,5.2,0,0,1,5.364-4.1c3.447,0,5.482,1.917,5.482,5.028v8.963h-2.943Zm0-4.776a2.982,2.982,0,0,0-2.808-1.379c-1.379,0-2.825.589-2.825,1.934,0,1.379,1.446,1.968,2.825,1.968a3,3,0,0,0,2.808-1.379Z" transform="translate(-177.545 -630.611)" fill="#fff"/>
        <path id="Path_90" data-name="Path 90" d="M286.821,649.544a4.69,4.69,0,0,1-3.481,1.413c-4.036,0-6.34-3.33-6.34-6.928s2.3-6.928,6.34-6.928a4.69,4.69,0,0,1,3.481,1.413V637.4H289.9v12.528c0,4.624-2.808,6.676-6.441,6.676-3.481,0-5.734-1.816-6.071-4.809h2.993a2.774,2.774,0,0,0,3.077,2.287c2.287,0,3.363-1.379,3.363-3.935Zm0-8.105a3.431,3.431,0,0,0-2.96-1.631c-2.371,0-3.733,1.783-3.733,4.221s1.362,4.221,3.733,4.221a3.431,3.431,0,0,0,2.96-1.631Z" transform="translate(-247.336 -630.777)" fill="#fff"/>
        <path id="Path_91" data-name="Path 91" d="M372.129,619.891a4.1,4.1,0,0,0,4.288,2.825c2.22,0,3.666-1.043,3.666-2.808,0-1.328-.774-2.1-2.741-2.556l-3.2-.774c-2.623-.622-4.709-2.035-4.709-5.078,0-3.2,2.623-5.6,6.441-5.6,4.1,0,6.491,2.1,7.181,5.23h-3.2a3.779,3.779,0,0,0-3.935-2.522c-2.035,0-3.414,1.043-3.414,2.623,0,1.261.807,2.068,2.489,2.472l3.3.773c2.96.673,4.894,2.4,4.894,5.23,0,3.548-2.825,5.734-6.743,5.734-4,0-6.861-2.035-7.551-5.549h3.229Z" transform="translate(-323.782 -604.824)" fill="#fff"/>
        <path id="Path_92" data-name="Path 92" d="M474.692,650.925v-.774a5.528,5.528,0,0,1-3.38,1.009c-2.808,0-5.112-1.665-5.112-4.473,0-2.59,2.3-4.406,5.331-4.406a6.614,6.614,0,0,1,3.178.824V642a2.365,2.365,0,0,0-2.623-2.472,2.218,2.218,0,0,0-2.337,1.48h-2.96a5.2,5.2,0,0,1,5.364-4.1c3.447,0,5.482,1.917,5.482,5.028v8.963h-2.943Zm0-4.776a2.982,2.982,0,0,0-2.808-1.379c-1.379,0-2.825.589-2.825,1.934,0,1.379,1.446,1.968,2.825,1.968a3,3,0,0,0,2.808-1.379Z" transform="translate(-404.72 -630.611)" fill="#fff"/>
        <path id="Path_93" data-name="Path 93" d="M556.6,602.561a2.771,2.771,0,0,0-1.513-.437,1.877,1.877,0,0,0-2,2.1v1.917h2.993V608.7h-2.993v11.116h-3.01V608.7H547.7v-2.556h2.371v-2.119a4.218,4.218,0,0,1,4.49-4.524,4.634,4.634,0,0,1,2.035.37Z" transform="translate(-472.515 -599.5)" fill="#fff"/>
        <path id="Path_94" data-name="Path 94" d="M618.525,646.837c-.454,2.707-2.472,4.557-5.751,4.557-3.817,0-6.474-2.892-6.474-7.113,0-4.1,2.674-7.181,6.407-7.181,3.851,0,5.936,2.741,5.936,6.743v1.11H609.31c.084,2.4,1.48,3.851,3.447,3.851a2.7,2.7,0,0,0,2.926-1.968Zm-9.114-4.137H615.6a2.784,2.784,0,0,0-2.859-3.01A3.28,3.28,0,0,0,609.411,642.7Z" transform="translate(-521.26 -630.777)" fill="#fff"/>
      </g>
      <path id="Path_95" data-name="Path 95" d="M265.9,86.283l24.417-51.441a7.584,7.584,0,0,1,2.976-3.279l18.75-11.233a2.228,2.228,0,0,1,3.33,1.48l3.767,19.019a12.324,12.324,0,0,1-.942,7.6L293.916,99.568Z" transform="translate(-238.103 -20.012)" fill="none" stroke="#fff" stroke-linecap="round" stroke-linejoin="round" stroke-miterlimit="10" stroke-width="2.46"/>
      <path id="Path_96" data-name="Path 96" d="M365.169,354.6a3.745,3.745,0,0,0-4.742,5.432l-1.732,3.649a.867.867,0,0,0,.4,1.143l1.984.942a.867.867,0,0,0,1.143-.4l1.732-3.649a3.753,3.753,0,0,0,1.211-7.113Z" transform="translate(-315.225 -298.035)" fill="#fff"/>
    </g>
  </g>
</svg>
