<svg xmlns="http://www.w3.org/2000/svg" width="213" height="281.997" viewBox="0 0 213 281.997">
  <g id="black" transform="translate(-95.074 -15.216)">
    <text id="TagSafe" transform="translate(95.074 274.213)" fill="#fff" font-size="66" font-family="CalibreTest-Medium, Calibre Test" font-weight="500"><tspan x="0" y="0">TagSafe</tspan></text>
    <path id="Path_78" data-name="Path 78" d="M265.89,163.006l52.7-111.02a16.454,16.454,0,0,1,6.416-7.066l40.452-24.227a4.813,4.813,0,0,1,7.193,3.193l8.114,41.058a26.349,26.349,0,0,1-2.047,16.406L326.337,191.7Z" transform="translate(-108.828)" fill="none" stroke="#fff" stroke-linecap="round" stroke-linejoin="round" stroke-miterlimit="10" stroke-width="9.46"/>
    <path id="Path_79" data-name="Path 79" d="M372.735,355.007A8.075,8.075,0,0,0,362.5,366.7l-3.741,7.878a1.864,1.864,0,0,0,.882,2.475l4.3,2.039a1.864,1.864,0,0,0,2.475-.882l3.741-7.878a8.075,8.075,0,0,0,2.584-15.329Z" transform="translate(-167.88 -212.933)" fill="#fff"/>
  </g>
</svg>
