<svg xmlns="http://www.w3.org/2000/svg" width="209.253" height="51.746" viewBox="0 0 209.253 51.746">
  <g id="blue-wide" transform="translate(-58.06 -304.197)">
    <g id="Group_11" data-name="Group 11" transform="translate(102.998 312.234)">
      <path id="Path_66" data-name="Path 66" d="M207.8,336.9h26.615v4.775H223.8V368.79h-5.394V341.675H207.8Z" transform="translate(-207.8 -334.483)" fill="#fff"/>
      <path id="Path_67" data-name="Path 67" d="M311.154,388.779v-1.3a9.344,9.344,0,0,1-5.718,1.709c-4.716,0-8.636-2.8-8.636-7.545,0-4.362,3.891-7.427,8.989-7.427a10.824,10.824,0,0,1,5.364,1.415v-1.857c0-2.328-1.444-4.156-4.421-4.156-2.093,0-3.389.884-3.949,2.505H297.8c.678-3.949,4.3-6.926,9.048-6.926,5.806,0,9.255,3.213,9.255,8.459v15.12h-4.952Zm0-8.046c-.56-1.444-2.653-2.328-4.716-2.328-2.328,0-4.775.973-4.775,3.272,0,2.328,2.446,3.331,4.775,3.331,2.093,0,4.156-.884,4.716-2.328Z" transform="translate(-270.569 -354.442)" fill="#fff"/>
      <path id="Path_68" data-name="Path 68" d="M394.164,386.115A7.932,7.932,0,0,1,388.3,388.5c-6.808,0-10.7-5.6-10.7-11.7,0-6.072,3.891-11.7,10.7-11.7a7.932,7.932,0,0,1,5.865,2.387V365.63h5.187v21.162c0,7.781-4.716,11.288-10.876,11.288-5.865,0-9.667-3.065-10.227-8.105h5.069c.531,2.535,2.328,3.832,5.187,3.832,3.832,0,5.659-2.328,5.659-6.661v-1.032Zm0-13.676a5.766,5.766,0,0,0-4.981-2.741c-4.008,0-6.278,3.006-6.278,7.133,0,4.1,2.3,7.133,6.278,7.133a5.831,5.831,0,0,0,4.981-2.741Z" transform="translate(-327.554 -354.372)" fill="#fff"/>
      <path id="Path_69" data-name="Path 69" d="M471.482,358.779c1.032,3.272,3.743,4.775,7.221,4.775,3.743,0,6.189-1.768,6.189-4.716,0-2.24-1.3-3.537-4.627-4.3l-5.394-1.3c-4.421-1.032-7.958-3.419-7.958-8.577,0-5.394,4.421-9.461,10.876-9.461,6.926,0,10.964,3.537,12.114,8.842h-5.394c-.825-2.387-2.859-4.274-6.661-4.274-3.419,0-5.777,1.768-5.777,4.421,0,2.122,1.356,3.478,4.215,4.156l5.571,1.3c4.981,1.149,8.253,4.067,8.253,8.842,0,5.983-4.775,9.667-11.377,9.667-6.749,0-11.583-3.419-12.733-9.343h5.482Z" transform="translate(-389.899 -333.284)" fill="#fff"/>
      <path id="Path_70" data-name="Path 70" d="M574.054,388.779v-1.3a9.344,9.344,0,0,1-5.718,1.709c-4.716,0-8.636-2.8-8.636-7.545,0-4.362,3.891-7.427,8.989-7.427a10.824,10.824,0,0,1,5.364,1.415v-1.857c0-2.328-1.444-4.156-4.421-4.156-2.093,0-3.39.884-3.949,2.505H560.7c.678-3.949,4.3-6.926,9.048-6.926,5.806,0,9.255,3.213,9.255,8.459v15.12h-4.952Zm0-8.046c-.56-1.444-2.653-2.328-4.716-2.328-2.328,0-4.775.973-4.775,3.272,0,2.328,2.446,3.331,4.775,3.331,2.093,0,4.156-.884,4.716-2.328Z" transform="translate(-455.982 -354.442)" fill="#fff"/>
      <path id="Path_71" data-name="Path 71" d="M653.232,333.917a4.512,4.512,0,0,0-2.535-.737c-2.093,0-3.389,1.238-3.389,3.537v3.213h5.04v4.3h-5.04v18.775h-5.1V344.233H638.2v-4.3h4.008v-3.6c0-4.952,3.272-7.634,7.575-7.634a7.878,7.878,0,0,1,3.419.619v4.6Z" transform="translate(-511.346 -328.7)" fill="#fff"/>
      <path id="Path_72" data-name="Path 72" d="M715.232,381.617c-.766,4.568-4.156,7.693-9.726,7.693-6.455,0-10.905-4.893-10.905-12,0-6.926,4.509-12.114,10.817-12.114,6.484,0,10.021,4.627,10.021,11.377v1.857H699.7c.147,4.067,2.505,6.484,5.806,6.484,2.505,0,4.362-1.091,4.952-3.331h4.775Zm-15.385-6.985H710.28c-.059-2.8-1.651-5.1-4.834-5.1C702.617,369.533,700.465,371.3,699.846,374.632Z" transform="translate(-551.122 -354.442)" fill="#fff"/>
    </g>
    <g id="Group_12" data-name="Group 12" transform="translate(59.2 305.352)">
      <path id="Path_73" data-name="Path 73" d="M59.2,344.743,73.73,314.149A4.687,4.687,0,0,1,75.5,312.2l11.141-6.661a1.313,1.313,0,0,1,1.975.884l2.24,11.318a7.184,7.184,0,0,1-.56,4.509L75.853,352.642Z" transform="translate(-59.2 -305.352)" fill="none" stroke="#fff" stroke-linecap="round" stroke-linejoin="round" stroke-miterlimit="10" stroke-width="2.28"/>
      <path id="Path_74" data-name="Path 74" d="M94.45,418.879a2.228,2.228,0,0,0-2.977,1.061,2.151,2.151,0,0,0,.147,2.152l-1.032,2.181a.52.52,0,0,0,.236.678l1.179.56a.52.52,0,0,0,.678-.236l1.032-2.181a2.243,2.243,0,0,0,1.768-1.267A2.168,2.168,0,0,0,94.45,418.879Z" transform="translate(-81.305 -385.265)" fill="#fff"/>
    </g>
  </g>
</svg>
