<svg xmlns="http://www.w3.org/2000/svg" width="50.36" height="68.346" viewBox="0 0 50.36 68.346">
  <path id="ic_mic_none_24px" d="M30.18,45.166A10.746,10.746,0,0,0,40.936,34.375l.036-21.583a10.792,10.792,0,1,0-21.583,0V34.375A10.777,10.777,0,0,0,30.18,45.166ZM25.864,12.432a4.317,4.317,0,1,1,8.633,0l-.036,22.3a4.3,4.3,0,1,1-8.6,0ZM49.245,34.375c0,10.792-9.137,18.346-19.065,18.346S11.115,45.166,11.115,34.375H5c0,12.266,9.784,22.41,21.583,24.173v11.8h7.194v-11.8c11.8-1.727,21.583-11.871,21.583-24.173Z" transform="translate(-5 -2)" fill="#e0e0e0"/>
</svg>
