<svg xmlns="http://www.w3.org/2000/svg" width="25.715" height="26.07" viewBox="0 0 25.715 26.07">
  <g id="IdSoFu.tif" transform="translate(547.83 50.99)">
    <g id="Group_17" data-name="Group 17" transform="translate(-547.83 -50.99)">
      <path id="Path_97" data-name="Path 97" d="M-530.719-47.521a1.349,1.349,0,0,0-1.3-1.268q-1.066-.017-2.132,0a1.363,1.363,0,0,0-1.313,1.34c0,.3,0,.61,0,.915q0,.2,0,.4t0,.384c0,.3,0,.6,0,.9a1.392,1.392,0,0,0,1.369,1.415c.685.011,1.37.01,2.055,0a1.386,1.386,0,0,0,1.326-1.278Q-530.687-46.115-530.719-47.521Zm-1.176,1.411h0c0,.4,0,.8,0,1.2,0,.21-.052.27-.26.271-.62,0-1.239,0-1.859,0-.185,0-.27-.09-.269-.274,0-.794,0-1.588,0-2.382,0-.257.064-.313.328-.313q.881,0,1.762,0c.242,0,.3.058.3.3Zm1.176-1.411a1.349,1.349,0,0,0-1.3-1.268q-1.066-.017-2.132,0a1.363,1.363,0,0,0-1.313,1.34c0,.3,0,.61,0,.915q0,.2,0,.4t0,.384c0,.3,0,.6,0,.9a1.392,1.392,0,0,0,1.369,1.415c.685.011,1.37.01,2.055,0a1.386,1.386,0,0,0,1.326-1.278Q-530.687-46.115-530.719-47.521Zm-1.176,1.411h0c0,.4,0,.8,0,1.2,0,.21-.052.27-.26.271-.62,0-1.239,0-1.859,0-.185,0-.27-.09-.269-.274,0-.794,0-1.588,0-2.382,0-.257.064-.313.328-.313q.881,0,1.762,0c.242,0,.3.058.3.3Zm9.78-1.99a.787.787,0,0,0-.249-.586c-.664-.661-1.333-1.316-1.981-1.993a.945.945,0,0,0-.755-.308c-.653.009-1.306,0-1.959,0q-3.433,0-6.866-.006-3.714,0-7.429,0c-1.642,0-3.285,0-4.927,0a2.168,2.168,0,0,0-.592.073,1.4,1.4,0,0,0-.956,1.361c.01.873,0,1.746,0,2.619q0,4.481,0,8.961h0q0,2.628,0,5.256,0,3.181,0,6.362a1.39,1.39,0,0,0,.062.457,1.379,1.379,0,0,0,1.41.968q2.425.005,4.849,0,3.647,0,7.293,0,3.036,0,6.071,0c1.519,0,3.039,0,4.558,0a1.394,1.394,0,0,0,1.46-1.467q0-6.246,0-12.492Q-522.115-43.493-522.115-48.1Zm-18.424-1.735h11.187c.267,0,.266,0,.266.27q0,3.374,0,6.747c0,.348-.024.373-.376.373l-8.1,0c-.956,0-1.913,0-2.869,0-.307,0-.363-.058-.363-.362q0-3.384,0-6.767C-540.8-49.831-540.8-49.834-540.539-49.834Zm13.324,23.682q-3.869-.009-7.737,0v0q-3.868,0-7.737,0c-.2,0-.215-.1-.215-.251q0-3.772,0-7.544,0-1.677,0-3.355c0-.294.031-.324.321-.324l11.189-.009q2.007,0,4.014,0c.333,0,.367.034.367.365q0,5.43,0,10.86C-527-26.25-527.011-26.151-527.216-26.152Zm3.861-.308c0,.249-.056.306-.311.307-.634,0-1.267-.007-1.9,0-.2,0-.255-.07-.254-.262q.006-3.346,0-6.692c0-1.416-.023-2.832.005-4.248a1.476,1.476,0,0,0-1.509-1.489c-3.692.014-7.383.005-11.075,0q-2.143,0-4.286,0a1.407,1.407,0,0,0-1.4,1.37q-.006,4.073,0,8.146c0,.982,0,1.965,0,2.948,0,.159-.056.22-.213.219-.7,0-1.41,0-2.114,0-.191,0-.262-.1-.262-.281,0-.556,0-1.112,0-1.668q0-4.2,0-8.4v-1.494h0v-8.146q0-1.668,0-3.336c0-.3.048-.352.345-.353,1.351,0,2.7,0,4.054-.009.184,0,.244.05.243.241-.008,1.758-.006,3.517-.006,5.275,0,.524,0,1.048,0,1.571a1.428,1.428,0,0,0,1.074,1.457,1.407,1.407,0,0,0,.4.045q3.472,0,6.943,0,2.008,0,4.015,0a1.788,1.788,0,0,0,.9-.153,1.355,1.355,0,0,0,.772-1.249c.005-1.81,0-3.62,0-5.431,0-.517.005-1.034,0-1.552,0-.154.052-.205.2-.2.782.006,1.565,0,2.347.012a.435.435,0,0,1,.271.115q.846.826,1.672,1.671a.439.439,0,0,1,.079.281q.005,2.977,0,5.954,0,6.7,0,13.4Q-523.354-27.43-523.355-26.46Zm-12.113-19.669q0,.192,0,.384c0,.3,0,.6,0,.9a1.392,1.392,0,0,0,1.369,1.415c.685.011,1.37.01,2.055,0a1.386,1.386,0,0,0,1.326-1.278q.031-1.4,0-2.811a1.349,1.349,0,0,0-1.3-1.268q-1.066-.017-2.132,0a1.363,1.363,0,0,0-1.313,1.34c0,.3,0,.61,0,.915Q-535.468-46.331-535.468-46.129Zm1.185-1.164c0-.257.064-.313.328-.313q.881,0,1.762,0c.242,0,.3.058.3.3v1.2h0c0,.4,0,.8,0,1.2,0,.21-.052.27-.26.271-.62,0-1.239,0-1.859,0-.185,0-.27-.09-.269-.274C-534.284-45.705-534.287-46.5-534.282-47.293Z" transform="translate(547.83 50.99)" fill="#fff"/>
      <path id="Path_98" data-name="Path 98" d="M-522.115-48.1a.787.787,0,0,0-.249-.586c-.664-.661-1.333-1.316-1.981-1.993a.945.945,0,0,0-.755-.308c-.653.009-1.306,0-1.959,0q-3.433,0-6.866-.006-3.714,0-7.429,0c-1.642,0-3.285,0-4.927,0a2.168,2.168,0,0,0-.592.073,1.4,1.4,0,0,0-.956,1.361c.01.873,0,1.746,0,2.619q0,4.481,0,8.961h0q0,2.628,0,5.256,0,3.181,0,6.362a1.39,1.39,0,0,0,.062.457,1.379,1.379,0,0,0,1.41.968q2.425.005,4.849,0,3.647,0,7.293,0,3.036,0,6.071,0c1.519,0,3.039,0,4.558,0a1.394,1.394,0,0,0,1.46-1.467q0-6.246,0-12.492Q-522.115-43.493-522.115-48.1Zm-18.424-1.735h11.187c.267,0,.266,0,.266.27q0,3.374,0,6.747c0,.348-.024.373-.376.373l-8.1,0c-.956,0-1.913,0-2.869,0-.307,0-.363-.058-.363-.362q0-3.384,0-6.767C-540.8-49.831-540.8-49.834-540.539-49.834Zm13.324,23.682q-3.869-.009-7.737,0v0q-3.868,0-7.737,0c-.2,0-.215-.1-.215-.251q0-3.772,0-7.544,0-1.677,0-3.355c0-.294.031-.324.321-.324l11.189-.009q2.007,0,4.014,0c.333,0,.367.034.367.365q0,5.43,0,10.86C-527-26.25-527.011-26.151-527.216-26.152Zm3.861-.308c0,.249-.056.306-.311.307-.634,0-1.267-.007-1.9,0-.2,0-.255-.07-.254-.262q.006-3.346,0-6.692c0-1.416-.023-2.832.005-4.248a1.476,1.476,0,0,0-1.509-1.489c-3.692.014-7.383.005-11.075,0q-2.143,0-4.286,0a1.407,1.407,0,0,0-1.4,1.37q-.006,4.073,0,8.146c0,.982,0,1.965,0,2.948,0,.159-.056.22-.213.219-.7,0-1.41,0-2.114,0-.191,0-.262-.1-.262-.281,0-.556,0-1.112,0-1.668q0-4.2,0-8.4v-1.494h0v-8.146q0-1.668,0-3.336c0-.3.048-.352.345-.353,1.351,0,2.7,0,4.054-.009.184,0,.244.05.243.241-.008,1.758-.006,3.517-.006,5.275,0,.524,0,1.048,0,1.571a1.428,1.428,0,0,0,1.074,1.457,1.407,1.407,0,0,0,.4.045q3.472,0,6.943,0,2.008,0,4.015,0a1.788,1.788,0,0,0,.9-.153,1.355,1.355,0,0,0,.772-1.249c.005-1.81,0-3.62,0-5.431,0-.517.005-1.034,0-1.552,0-.154.052-.205.2-.2.782.006,1.565,0,2.347.012a.435.435,0,0,1,.271.115q.846.826,1.672,1.671a.439.439,0,0,1,.079.281q.005,2.977,0,5.954,0,6.7,0,13.4Q-523.354-27.43-523.355-26.46Z" transform="translate(547.83 50.99)"/>
      <path id="Path_99" data-name="Path 99" d="M-229.219,64.313c0-.134,0-.268,0-.4q0,.2,0,.4t0,.384C-229.218,64.569-229.219,64.441-229.219,64.313Z" transform="translate(241.582 -59.452)" fill="#fff"/>
      <path id="Path_100" data-name="Path 100" d="M-224.49,6.79a1.349,1.349,0,0,0-1.3-1.268q-1.066-.017-2.132,0a1.363,1.363,0,0,0-1.313,1.34c0,.3,0,.61,0,.915q0,.2,0,.4t0,.384c0,.3,0,.6,0,.9a1.392,1.392,0,0,0,1.369,1.415c.685.011,1.37.01,2.055,0A1.386,1.386,0,0,0-224.489,9.6Q-224.458,8.2-224.49,6.79ZM-225.666,8.2h0c0,.4,0,.8,0,1.2,0,.21-.052.27-.26.271-.62,0-1.239,0-1.859,0-.185,0-.27-.09-.269-.274,0-.794,0-1.588,0-2.382,0-.257.064-.313.328-.313q.881,0,1.762,0c.242,0,.3.058.3.3Z" transform="translate(241.601 -3.321)"/>
    </g>
  </g>
</svg>
