<?xml version="1.0" encoding="utf-8"?>
<!-- Generator: Adobe Illustrator 23.0.2, SVG Export Plug-In . SVG Version: 6.00 Build 0)  -->
<svg version="1.1" id="Laag_1" xmlns="http://www.w3.org/2000/svg" xmlns:xlink="http://www.w3.org/1999/xlink" x="0px" y="0px"
	 viewBox="0 0 534.7 535" style="enable-background:new 0 0 534.7 535;" xml:space="preserve">
<style type="text/css">
	.st0{fill:#0364E8;stroke:#0364E8;stroke-width:20;stroke-miterlimit:10;}
</style>
<path class="st0" d="M513.7,323.3l-28-16.1c-30.2-17.4-30.2-60.9,0-78.4l28-16.1c7.2-4.1,9.6-13.3,5.5-20.5L458.9,87.8
	c-4.1-7.2-13.3-9.6-20.5-5.5l-28,16.1c-30.2,17.4-67.9-4.3-67.9-39.2V27c0-8.3-6.7-15-15-15H207.1c-8.3,0-15,6.7-15,15v32.3
	c0,34.8-37.7,56.6-67.9,39.2l-28-16.1c-7.2-4.1-16.3-1.7-20.5,5.5L15.6,192.2c-4.1,7.2-1.7,16.3,5.5,20.5l28,16.1
	c30.2,17.4,30.2,60.9,0,78.4l-28,16.1c-7.2,4.1-9.6,13.3-5.5,20.5l60.2,104.4c4.1,7.2,13.3,9.6,20.5,5.5l28-16.1
	c30.2-17.4,67.9,4.3,67.9,39.2V509c0,8.3,6.7,15,15,15h120.5c8.3,0,15-6.7,15-15v-32.3c0-34.8,37.7-56.6,67.9-39.2l28,16.1
	c7.2,4.1,16.3,1.7,20.5-5.5l60.2-104.4C523.3,336.6,520.9,327.5,513.7,323.3z M440.4,420.2l-15-8.6c-50.2-29-112.9,7.2-112.9,65.2
	V494h-90.5v-17.3c0-57.9-62.7-94.2-112.9-65.2l-15,8.6L49,341.8l15-8.6c50.2-29,50.2-101.3,0-130.3l-15-8.6l45.2-78.4l15,8.6
	c50.2,29,112.9-7.2,112.9-65.2V42h90.5v17.3c0,57.9,62.7,94.2,112.9,65.2l15-8.6l45.2,78.4l-15,8.6c-50.2,29-50.2,101.3,0,130.3
	l15,8.6L440.4,420.2z"/>
<path class="st0" d="M267.4,163c-57.9,0-105,47.1-105,105s47.1,105,105,105c57.9,0,105-47.1,105-105S325.3,163,267.4,163z
	 M267.4,343c-41.4,0-75-33.6-75-75s33.6-75,75-75c41.3,0,75,33.6,75,75S308.7,343,267.4,343z"/>
</svg>
