<svg xmlns="http://www.w3.org/2000/svg" width="165.412" height="188.407" viewBox="0 0 165.412 188.407">
  <g id="Group_14" data-name="Group 14" transform="translate(261 -3496)">
    <g id="Group_12" data-name="Group 12" transform="translate(-261 3496)">
      <path id="Path_69" data-name="Path 69" d="M131.412,362.172a.092.092,0,0,1-.042.008q-1.828-29.759-3.648-59.527c-.479-7.751-.975-15.51-1.538-23.253a5.414,5.414,0,0,0-6.683-5.162c-3.043.614-4.506,3.262-4.245,7.373q1.866,29.129,3.674,58.258c.6,9.575,1.126,19.15,1.74,28.717a5.542,5.542,0,0,0,5.935,5.481c3.1-.2,5.2-2.631,5.111-6.02C131.664,366.089,131.513,364.13,131.412,362.172Zm27.851-82.8a5.312,5.312,0,0,0-5.431-5.262,5.373,5.373,0,0,0-5.473,5.237c-.042.7-.017,1.4-.017,2.1v42.42h-.017v14.073c.008,10.155-.017,20.3.034,30.457a5.352,5.352,0,0,0,5.439,5.683c3.127.017,5.389-2.312,5.506-5.657.008-.353,0-.7,0-1.051q.013-37.276.008-74.559C159.314,288.336,159.373,283.855,159.264,279.375Zm27.944-5.254c-3.152-.16-5.473,1.975-5.75,5.363-.2,2.371-.3,4.75-.446,7.129-1.513,23.892-3.026,47.792-4.59,72.541-.135,2.564-.4,5.994-.471,9.415a5.456,5.456,0,0,0,10.416,2.362,9.621,9.621,0,0,0,.647-3.253q2.106-33.429,4.144-66.875c.429-6.91.933-13.829,1.278-20.748A5.461,5.461,0,0,0,187.207,274.12Zm0,0c-3.152-.16-5.473,1.975-5.75,5.363-.2,2.371-.3,4.75-.446,7.129-1.513,23.892-3.026,47.792-4.59,72.541-.135,2.564-.4,5.994-.471,9.415a5.456,5.456,0,0,0,10.416,2.362,9.621,9.621,0,0,0,.647-3.253q2.106-33.429,4.144-66.875c.429-6.91.933-13.829,1.278-20.748A5.461,5.461,0,0,0,187.207,274.12Zm-33.374-.008a5.373,5.373,0,0,0-5.473,5.237c-.042.7-.017,1.4-.017,2.1v42.42h-.017v14.073c.008,10.155-.017,20.3.034,30.457a5.352,5.352,0,0,0,5.439,5.683c3.127.017,5.389-2.312,5.506-5.657.008-.353,0-.7,0-1.051q.013-37.276.008-74.559c0-4.481.059-8.962-.05-13.442A5.312,5.312,0,0,0,153.833,274.112ZM131.37,362.18q-1.828-29.759-3.648-59.527c-.479-7.751-.975-15.51-1.538-23.253a5.414,5.414,0,0,0-6.683-5.162c-3.043.614-4.506,3.262-4.245,7.373q1.866,29.129,3.674,58.258c.6,9.575,1.126,19.15,1.74,28.717a5.542,5.542,0,0,0,5.935,5.481c3.1-.2,5.2-2.631,5.111-6.02-.05-1.958-.2-3.917-.3-5.876A.092.092,0,0,1,131.37,362.18ZM236.218,243.234a16.056,16.056,0,0,0-14.745-13.081c-7.549-.353-15.115-.177-22.681-.219-2.018-.009-4.035,0-6.313,0,0-1.891.042-3.556-.008-5.212-.261-9.617-7.053-16.687-16.6-16.8-14.7-.177-29.415-.151-44.118-.008a15.972,15.972,0,0,0-15.914,12.5c-.748,2.934-.639,6.078-.958,9.516-.857,0-1.757-.009-2.648,0-8.76.059-17.519-.126-26.254.244-7.162.294-13.232,6.07-14.552,13.056a16.333,16.333,0,0,0,9.062,18.1,3.353,3.353,0,0,1,2.2,3.3c.622,8.1,1.32,16.191,1.992,24.287q2.434,29.508,4.884,59.032c.933,11.088,1.715,22.2,2.884,33.265.958,9.012,7.751,14.938,16.83,14.956q44.538.088,89.085,0c9.071-.017,15.754-5.969,16.855-14.947.639-5.2.992-10.449,1.429-15.678q2.661-32.029,5.3-64.059c1.017-12.282,2.06-24.564,3.018-36.846a3.558,3.558,0,0,1,2.4-3.38A16.31,16.31,0,0,0,236.218,243.234Zm-109.85-19.646c.37-2.984,2.757-4.708,6.213-4.716q17.414-.013,34.846,0c2.656.008,5.321-.034,7.978.008,3.64.059,5.893,2.261,6.028,5.868.059,1.6.008,3.2.008,5.027H126.326A52.088,52.088,0,0,1,126.368,223.588Zm87.522,41.184q-1.992,24.06-4.01,48.128-1.362,16.431-2.69,32.862c-.933,11.24-1.841,22.471-2.825,33.694-.336,3.825-2.522,5.725-6.406,5.733q-44.11.013-88.228,0c-3.976,0-6.128-1.891-6.465-5.885-1.53-18.074-2.984-36.149-4.481-54.214q-2.383-28.776-4.809-57.552c-.118-1.387-.185-2.774-.294-4.422H213.806A12.619,12.619,0,0,1,213.89,264.772Zm5.927-12.786c-6.372.059-12.753.017-19.125.017H88.681c-.277,0-.563.008-.841,0a5.619,5.619,0,0,1-5.733-5.5,5.522,5.522,0,0,1,5.733-5.456c7.423-.05,14.846-.017,22.278-.017H218.976c.277,0,.555-.008.841,0,3.321.109,5.725,2.4,5.725,5.464A5.541,5.541,0,0,1,219.817,251.986ZM187.207,274.12c-3.152-.16-5.473,1.975-5.75,5.363-.2,2.371-.3,4.75-.446,7.129-1.513,23.892-3.026,47.792-4.59,72.541-.135,2.564-.4,5.994-.471,9.415a5.456,5.456,0,0,0,10.416,2.362,9.621,9.621,0,0,0,.647-3.253q2.106-33.429,4.144-66.875c.429-6.91.933-13.829,1.278-20.748A5.461,5.461,0,0,0,187.207,274.12Zm-33.374-.008a5.373,5.373,0,0,0-5.473,5.237c-.042.7-.017,1.4-.017,2.1v42.42h-.017v14.073c.008,10.155-.017,20.3.034,30.457a5.352,5.352,0,0,0,5.439,5.683c3.127.017,5.389-2.312,5.506-5.657.008-.353,0-.7,0-1.051q.013-37.276.008-74.559c0-4.481.059-8.962-.05-13.442A5.312,5.312,0,0,0,153.833,274.112ZM131.37,362.18q-1.828-29.759-3.648-59.527c-.479-7.751-.975-15.51-1.538-23.253a5.414,5.414,0,0,0-6.683-5.162c-3.043.614-4.506,3.262-4.245,7.373q1.866,29.129,3.674,58.258c.6,9.575,1.126,19.15,1.74,28.717a5.542,5.542,0,0,0,5.935,5.481c3.1-.2,5.2-2.631,5.111-6.02-.05-1.958-.2-3.917-.3-5.876A.092.092,0,0,1,131.37,362.18Zm.042-.008a.092.092,0,0,1-.042.008q-1.828-29.759-3.648-59.527c-.479-7.751-.975-15.51-1.538-23.253a5.414,5.414,0,0,0-6.683-5.162c-3.043.614-4.506,3.262-4.245,7.373q1.866,29.129,3.674,58.258c.6,9.575,1.126,19.15,1.74,28.717a5.542,5.542,0,0,0,5.935,5.481c3.1-.2,5.2-2.631,5.111-6.02C131.664,366.089,131.513,364.13,131.412,362.172Zm27.851-82.8a5.312,5.312,0,0,0-5.431-5.262,5.373,5.373,0,0,0-5.473,5.237c-.042.7-.017,1.4-.017,2.1v42.42h-.017v14.073c.008,10.155-.017,20.3.034,30.457a5.352,5.352,0,0,0,5.439,5.683c3.127.017,5.389-2.312,5.506-5.657.008-.353,0-.7,0-1.051q.013-37.276.008-74.559C159.314,288.336,159.373,283.855,159.264,279.375Zm27.944-5.254c-3.152-.16-5.473,1.975-5.75,5.363-.2,2.371-.3,4.75-.446,7.129-1.513,23.892-3.026,47.792-4.59,72.541-.135,2.564-.4,5.994-.471,9.415a5.456,5.456,0,0,0,10.416,2.362,9.621,9.621,0,0,0,.647-3.253q2.106-33.429,4.144-66.875c.429-6.91.933-13.829,1.278-20.748A5.461,5.461,0,0,0,187.207,274.12Zm0,0c-3.152-.16-5.473,1.975-5.75,5.363-.2,2.371-.3,4.75-.446,7.129-1.513,23.892-3.026,47.792-4.59,72.541-.135,2.564-.4,5.994-.471,9.415a5.456,5.456,0,0,0,10.416,2.362,9.621,9.621,0,0,0,.647-3.253q2.106-33.429,4.144-66.875c.429-6.91.933-13.829,1.278-20.748A5.461,5.461,0,0,0,187.207,274.12Zm-27.944,5.254a5.312,5.312,0,0,0-5.431-5.262,5.373,5.373,0,0,0-5.473,5.237c-.042.7-.017,1.4-.017,2.1v42.42h-.017v14.073c.008,10.155-.017,20.3.034,30.457a5.352,5.352,0,0,0,5.439,5.683c3.127.017,5.389-2.312,5.506-5.657.008-.353,0-.7,0-1.051q.013-37.276.008-74.559C159.314,288.336,159.373,283.855,159.264,279.375Zm-27.851,82.8a.092.092,0,0,1-.042.008q-1.828-29.759-3.648-59.527c-.479-7.751-.975-15.51-1.538-23.253a5.414,5.414,0,0,0-6.683-5.162c-3.043.614-4.506,3.262-4.245,7.373q1.866,29.129,3.674,58.258c.6,9.575,1.126,19.15,1.74,28.717a5.542,5.542,0,0,0,5.935,5.481c3.1-.2,5.2-2.631,5.111-6.02C131.664,366.089,131.513,364.13,131.412,362.172Z" transform="translate(-71.118 -207.802)" fill="#fff"/>
      <path id="Path_70" data-name="Path 70" d="M236.218,243.234a16.056,16.056,0,0,0-14.745-13.081c-7.549-.353-15.115-.177-22.681-.219-2.018-.009-4.035,0-6.313,0,0-1.891.042-3.556-.008-5.212-.261-9.617-7.053-16.687-16.6-16.8-14.7-.177-29.415-.151-44.118-.008a15.972,15.972,0,0,0-15.914,12.5c-.748,2.934-.639,6.078-.958,9.516-.857,0-1.757-.009-2.648,0-8.76.059-17.519-.126-26.254.244-7.162.294-13.232,6.07-14.552,13.056a16.333,16.333,0,0,0,9.062,18.1,3.353,3.353,0,0,1,2.2,3.3c.622,8.1,1.32,16.191,1.992,24.287q2.434,29.508,4.884,59.032c.933,11.088,1.715,22.2,2.884,33.265.958,9.012,7.751,14.938,16.83,14.956q44.538.088,89.085,0c9.071-.017,15.754-5.969,16.855-14.947.639-5.2.992-10.449,1.429-15.678q2.661-32.029,5.3-64.059c1.017-12.282,2.06-24.564,3.018-36.846a3.558,3.558,0,0,1,2.4-3.38A16.31,16.31,0,0,0,236.218,243.234Zm-109.85-19.646c.37-2.984,2.757-4.708,6.213-4.716q17.414-.013,34.846,0c2.656.008,5.321-.034,7.978.008,3.64.059,5.893,2.261,6.028,5.868.059,1.6.008,3.2.008,5.027H126.326A52.088,52.088,0,0,1,126.368,223.588Zm87.522,41.184q-1.992,24.06-4.01,48.128-1.362,16.431-2.69,32.862c-.933,11.24-1.841,22.471-2.825,33.694-.336,3.825-2.522,5.725-6.406,5.733q-44.11.013-88.228,0c-3.976,0-6.128-1.891-6.465-5.885-1.53-18.074-2.984-36.149-4.481-54.214q-2.383-28.776-4.809-57.552c-.118-1.387-.185-2.774-.294-4.422H213.806A12.619,12.619,0,0,1,213.89,264.772Zm5.927-12.786c-6.372.059-12.753.017-19.125.017H88.681c-.277,0-.563.008-.841,0a5.619,5.619,0,0,1-5.733-5.5,5.522,5.522,0,0,1,5.733-5.456c7.423-.05,14.846-.017,22.278-.017H218.976c.277,0,.555-.008.841,0,3.321.109,5.725,2.4,5.725,5.464A5.541,5.541,0,0,1,219.817,251.986Z" transform="translate(-71.118 -207.802)" fill="#fff"/>
      <path id="Path_71" data-name="Path 71" d="M212.305,292.623c-.345,6.919-.849,13.837-1.278,20.748q-2.056,33.441-4.145,66.875a9.623,9.623,0,0,1-.647,3.254,5.456,5.456,0,0,1-10.416-2.363c.067-3.421.336-6.851.471-9.415,1.564-24.749,3.077-48.649,4.59-72.541.143-2.379.244-4.758.446-7.129.277-3.388,2.6-5.523,5.75-5.363A5.461,5.461,0,0,1,212.305,292.623Z" transform="translate(-90.987 -220.37)" fill="#fff"/>
      <path id="Path_72" data-name="Path 72" d="M140.075,380.616c.084,3.387-2.009,5.817-5.111,6.019a5.542,5.542,0,0,1-5.935-5.481c-.614-9.567-1.143-19.142-1.74-28.717q-1.816-29.129-3.674-58.258c-.261-4.111,1.2-6.759,4.245-7.372a5.414,5.414,0,0,1,6.683,5.162c.563,7.742,1.059,15.5,1.538,23.252q1.841,29.76,3.648,59.528a.092.092,0,0,0,.042-.008C139.873,376.7,140.024,378.657,140.075,380.616Z" transform="translate(-79.478 -220.37)" fill="#fff"/>
      <path id="Path_73" data-name="Path 73" d="M173.948,305.385q0,37.276-.008,74.559c0,.353.008.7,0,1.051-.118,3.346-2.379,5.675-5.506,5.658a5.352,5.352,0,0,1-5.439-5.683c-.05-10.155-.025-20.3-.034-30.458V336.439h.017v-42.42c0-.7-.025-1.4.017-2.1a5.373,5.373,0,0,1,5.473-5.238,5.313,5.313,0,0,1,5.431,5.263C174.006,296.423,173.948,300.9,173.948,305.385Z" transform="translate(-85.752 -220.37)" fill="#fff"/>
    </g>
  </g>
</svg>
